<?xml version="1.0" encoding="UTF-8" standalone="no"?>
<!-- Created with Inkscape (http://www.inkscape.org/) -->

<svg
   xmlns:dc="http://purl.org/dc/elements/1.1/"
   xmlns:cc="http://creativecommons.org/ns#"
   xmlns:rdf="http://www.w3.org/1999/02/22-rdf-syntax-ns#"
   xmlns:svg="http://www.w3.org/2000/svg"
   xmlns="http://www.w3.org/2000/svg"
   xmlns:xlink="http://www.w3.org/1999/xlink"
   xmlns:sodipodi="http://sodipodi.sourceforge.net/DTD/sodipodi-0.dtd"
   xmlns:inkscape="http://www.inkscape.org/namespaces/inkscape"
   width="136.78952mm"
   height="40.739342mm"
   viewBox="0 0 136.78952 40.739342"
   version="1.1"
   id="svg8"
   inkscape:version="0.92.1 r15371"
   sodipodi:docname="logo.svg">
  <defs
     id="defs2">
    <clipPath
       clipPathUnits="userSpaceOnUse"
       id="clipPath4728">
      <use
         x="0"
         y="0"
         xlink:href="#g4724"
         id="use4730"
         width="100%"
         height="100%" />
    </clipPath>
  </defs>
  <sodipodi:namedview
     id="base"
     pagecolor="#ffffff"
     bordercolor="#666666"
     borderopacity="1.0"
     inkscape:pageopacity="0"
     inkscape:pageshadow="2"
     inkscape:zoom="1.4"
     inkscape:cx="260.11736"
     inkscape:cy="187.34318"
     inkscape:document-units="mm"
     inkscape:current-layer="g3803"
     showgrid="false"
     inkscape:pagecheckerboard="true"
     inkscape:window-width="1920"
     inkscape:window-height="1017"
     inkscape:window-x="-8"
     inkscape:window-y="760"
     inkscape:window-maximized="1"
     fit-margin-top="0"
     fit-margin-left="0"
     fit-margin-right="0"
     fit-margin-bottom="0" />
  <metadata
     id="metadata5">
    <rdf:RDF>
      <cc:Work
         rdf:about="">
        <dc:format>image/svg+xml</dc:format>
        <dc:type
           rdf:resource="http://purl.org/dc/dcmitype/StillImage" />
        <dc:title></dc:title>
      </cc:Work>
    </rdf:RDF>
  </metadata>
  <g
     inkscape:label="Layer 1"
     inkscape:groupmode="layer"
     id="layer1"
     transform="translate(-33.432069,-64.210826)">
    <g
       id="g3751"
       transform="matrix(0.26458333,0,0,0.26458333,28.934078,60.764881)">
      <g
         inkscape:export-xdpi="96"
         inkscape:export-ydpi="96"
         id="g3803">
        <g
           id="g4726"
           clip-path="url(#clipPath4728)">
          <g
             inkscape:label="Clip"
             id="g4724" />
        </g>
        <path
           id="path4851"
           style="fill:#292728;fill-opacity:0.99497483;fill-rule:evenodd;stroke-width:0.64713937"
           d="m 473.38494,88.815269 a 1.2305791,1.3660939 0 0 1 -1.23058,1.366094 1.2305791,1.3660939 0 0 1 -1.23058,-1.366094 1.2305791,1.3660939 0 0 1 1.23058,-1.366093 1.2305791,1.3660939 0 0 1 1.23058,1.366093 z M 71,130 l 1,1 z m -8,-2 1,1 -1,-1 m 14,-17 1,1 -1,-1 m 20.00027,-50.00044 0.11133,1.38867 0.61133,0.94531 1.33203,0.55469 1.44531,0.11133 h 1.5 l -1.06054,-1.32813 -1.09961,-0.80078 -0.81836,-0.32617 -0.41211,-0.22851 z m 434,1 -0.4668,1.60937 -0.22851,0.40235 -0.88672,1.42383 -0.68359,0.59375 -0.3086,0.32226 -1.42578,0.64844 -0.18359,1.67187 -0.0957,0.48829 -0.16015,1 c -0.241,1.2843 -0.49992,2.56889 -0.79492,3.84179 l -1.29493,4.99805 c -0.34392,1.3343 -0.64206,2.6799 -1.03906,4 -0.406,1.352 -0.89448,2.6813 -1.39648,4 -0.517,1.3542 -1.03499,2.7141 -1.70899,4 -0.744,1.4204 -1.63601,2.75352 -2.66601,3.98242 l -1.75391,1.88477 -0.94336,0.85937 -0.96289,0.7793 -1.9082,1.30664 -1.76172,1.08008 -1.57617,0.99414 -0.39453,0.26758 -1.35938,0.8457 0.29102,-1.66992 0.14258,-1.47071 -0.0371,-0.8457 -0.16797,-0.89062 -0.34571,-0.8086 -1.21679,-1.28515 -1.72461,-0.69532 -0.95703,-0.14062 -1.94336,0.05469 -0.9375,0.18945 -1.72461,0.72656 c -0.835,0.4933 -1.50139,1.18623 -2.15039,1.89453 l -2.00977,2.36328 c -0.723,0.808 -1.45914,1.59766 -2.24414,2.34766 l -0.9082,0.75195 -0.4375,0.40821 -1.47266,1.27148 0.97852,-3.36133 0.25781,-0.88281 0.21289,-0.97656 0.14258,-1.92188 -0.10938,-0.90625 -0.67187,-1.51367 -1.28516,-0.9043 -0.83008,-0.2207 -0.91015,-0.10937 -1.94531,-0.07422 c -1.606,-0.0219 -3.32149,-0.08173 -4.77149,0.73437 l -0.80664,0.55274 -1.34766,1.53125 -1.06835,1.86914 -1.04883,1.95898 -1.21094,1.86328 -0.80469,1.00196 -0.38281,0.48828 -1.55469,1.66992 -0.33008,-1.66992 -0.01,-0.48828 -0.041,-1.00196 0.25391,-1.86328 0.25195,-0.97656 0.5918,-1.95508 0.38086,-1.81641 -0.17774,-1.48828 -0.63672,-0.96484 -1.2832,-0.77539 -0.53711,1.66797 -0.23242,0.4668 -0.41601,0.98046 -0.85157,1.75 -0.25,0.46875 -0.71289,1.66602 c -0.68,-1.3964 -1.21736,-3.05446 -2.56836,-3.97656 l -1.57226,-0.66602 -0.89258,-0.18164 -1.81055,-0.28906 -1.48633,-0.32422 -1.66992,-0.5625 -0.95898,1.67187 -0.23438,0.48829 -1.03125,1.88476 c -0.605,1.0171 -1.26034,1.99344 -2.02734,2.89844 l -1.64258,1.73633 -0.96484,0.80468 -0.47461,0.42969 -1.66602,1.08594 0.22461,-1.66992 0.13867,-0.48828 0.23047,-1 0.26563,-0.88086 c 0.27,-0.93 0.54067,-1.85808 0.76367,-2.80078 l 0.26367,-1.48829 0.11328,-1.67187 c -1.052,-0.1018 -2.1022,-0.22692 -3.1582,-0.29102 l -0.8711,-0.0039 -1.87109,0.32226 -1.7207,0.89063 c -0.811,0.5605 -1.50038,1.33381 -2.10938,2.09961 l -2.85351,3.84375 -1.25,1.39648 -0.69727,0.57617 -0.73437,0.41797 -0.73047,0.20703 -1.21289,-0.36328 -0.34375,-0.54883 -0.10547,-0.71875 0.54297,-1.62695 1.31836,-1.40625 0.75,-0.50586 1.39062,-0.67383 1.65625,-0.61523 -0.6543,-1.19922 -0.95507,-0.77148 -1.53907,-0.56055 -0.90625,-0.0957 -1.90625,0.27539 -1.82617,0.95898 -1.56445,1.54102 -1.23242,1.86718 -0.49805,0.96485 -0.8125,1.85937 -0.56055,1.49024 -0.54492,1.66992 -0.59961,-1.66992 -0.082,-0.48828 -0.24805,-1.00196 -0.32226,-1.85937 -0.46094,-2.82031 -0.12109,-1 -0.0684,-0.48829 -0.0977,-1.67187 -1.38672,0.6543 -1.00781,0.95507 -1.07617,1.5254 -1.56836,2.69726 c -0.533,0.876 -1.11678,1.72228 -1.80078,2.48828 l -1.4961,1.45703 -0.82812,0.66016 -1.7168,1.12305 -1.45312,0.76367 -1.66602,0.67578 -0.20703,-1.66992 0.10547,-1.49024 0.42383,-1.86523 1,-2.97461 1.08593,-3 c 0.352,-0.9814 0.71943,-1.96431 0.98243,-2.97461 l 0.39843,-1.86523 0.10743,-1 0.0566,-0.48829 0.0469,-1.67187 -1.38672,0.6543 -1.0039,0.95703 -1.04492,1.53711 -0.94532,1.85156 c -0.462,0.9122 -0.86958,1.8837 -1.51758,2.6875 l -1.39843,1.34375 -0.83203,0.51367 -1.79688,0.91016 -0.89062,0.51367 -1.62891,1.33984 -0.7168,0.82422 -1.25976,1.79688 c -0.566,0.868 -1.09928,1.76889 -1.73828,2.58789 l -1.23438,1.44726 -0.77734,0.68555 -0.35938,0.36133 -1.46875,0.98828 0.53516,-1.66992 0.23437,-0.48828 0.40625,-1.00196 0.79297,-1.86523 0.59766,-1.9707 0.17773,-1.94532 -0.36328,-1.73632 -0.98437,-1.24024 -1.51953,-0.50391 -1.73633,0.18946 -0.98633,0.32617 -2.1543,0.90625 -0.33398,-1.72266 -0.38867,-0.58203 -0.61133,-0.27734 -0.75,-0.05664 -0.85938,0.16601 -1.64062,0.97266 -0.72266,0.75 -1.27734,1.7793 -0.52735,0.9707 -0.47265,1 -0.80469,2 -0.80469,1.94531 -0.30664,0.55469 -0.5,1.5 -0.38281,-1.66992 0.0977,-1.48828 0.48828,-1.8418 0.70312,-1.83984 0.375,-1 0.20899,-0.48829 0.50976,-1.67187 -1.67187,-0.58008 -0.48828,-0.04297 -1,-0.1582 -1.86329,0.13281 -1.96289,0.67969 -0.97461,0.57422 -1.85351,1.54297 c -1.189,1.146 -2.1417,2.50089 -3.0957,3.83789 l -0.66407,0.9707 -1.30273,1.81445 -0.6875,0.80469 -1.48438,1.3125 -0.39257,0.33594 -1.44727,0.48633 -1.11133,-0.71094 1.07031,-1.62891 0.4043,-0.4414 0.74219,-0.91992 2.18945,-2.39844 c 1.516,-1.764 2.93011,-3.65985 3.91211,-5.78125 0.704,-1.5222 1.25272,-3.13037 1.26172,-4.82617 0.012,-2.0995 -0.88108,-4.06991 -1.58008,-6.00391 l -1.66797,0.16016 -0.47656,0.15429 -1.79297,0.71289 -1.64844,1.29102 -1.33984,1.74023 -0.54297,0.96094 c -0.481,0.9787 -0.91422,1.96987 -1.32422,2.98047 -0.401,0.9896 -0.76723,1.9908 -1.11523,3 l -0.58203,2 c -0.438,1.655 -0.65361,3.37508 -1.34961,4.95508 l -0.44922,0.92969 -1.125,1.66601 -1.11914,1.21094 -1.4668,1.23828 v 2 l 1,1 h 2 l 0.66406,-1 0.33594,-2 c 2.38981,0.95334 2.28446,1.04251 3.16016,1.29101 l 1.84961,0.43165 1.83789,-0.3125 c 1.95142,-0.53137 1.92186,-0.52771 2.39648,-1.10352 l 0.85742,-0.95703 c 0,0 0.66982,-0.57002 1.10938,-0.57617 0.36328,-0.005 0.68824,-0.0879 1.00781,0.0762 0.20131,0.10335 0.61719,0.63867 0.61719,0.63867 l 0.70312,0.86719 2.14454,0.12304 1.23046,-0.47656 1.08594,-1.00195 2.14453,0.9375 0.97266,0.17969 1.69531,-0.41992 1.55078,-1.14844 0.66992,-0.78125 1.16797,-1.80664 1.00782,-1.91993 0.89062,-1.88085 0.24024,-0.48829 0.66015,-1.67187 0.0957,1.67187 -0.22656,1.48829 -0.78711,2.82617 -0.33007,1.86523 -0.0332,1.46094 0.59766,1.51953 1.68359,0.16797 0.3418,-1.66992 0.72851,-1.66407 0.84571,-1.73437 0.89258,-1.17773 1.04882,-1.8418 1.41211,-1.57031 0.46289,0.88281 -0.2539,1.93555 -0.18946,1 -0.19921,1.83984 -0.0742,1.8418 -0.0605,2.71289 1.71484,0.75976 1.47266,-0.0332 0.84375,-0.17774 1.69727,-0.72656 1.23046,-0.95312 1.08594,-1.42383 1.66602,0.99805 1.43554,0.42773 h 1.60157 l 1.21093,-0.42773 1.08594,-0.99805 1.66992,0.58594 1.49024,0.25 1.84961,0.10742 c 1.52,0.003 3.0514,-0.0908 4.5664,0.0762 0.875,0.096 1.73175,0.30656 2.59375,0.47656 l 1.86524,0.29102 1.91015,0.0273 0.90625,-0.12304 1.53907,-0.56055 0.61328,-0.56055 0.99609,-1.57031 1.35938,0.74414 c 0.9,0.446 1.83398,0.82352 2.83398,0.97852 0.94,0.146 1.87927,0.12562 2.82227,0.0156 1.344,-0.157 2.65837,-0.53011 3.98437,-0.78711 l 2.98047,-0.53711 0.96094,-0.24609 1.73828,-0.78516 0.80273,-0.66015 1.51758,-1.72266 1.66992,1.31055 1.46485,0.69726 1.72851,0.25 1.4668,-0.30078 1.66992,-0.95703 -0.63086,1.67187 -0.20703,0.48829 c -0.631,1.605 -1.25273,3.20679 -1.80273,4.84179 -0.328,0.973 -0.6208,1.96866 -0.8418,2.97266 l -0.33398,1.86523 -0.0918,1.00196 -0.0508,0.48828 -0.041,1.66992 1.12891,-0.6543 0.24023,-0.33984 0.55664,-0.61524 0.82813,-1.53906 c 0.41,-0.94 0.765,-1.89547 1.125,-2.85547 l 1.07812,-2.9707 0.58203,-1.86523 0.32032,-1.48829 0.14062,-1.67187 c 1.347,0.25 2.68697,0.51498 4.04297,0.70898 l 1.94531,0.14258 1.90235,-0.18164 1.67578,-0.67383 1.24805,-1.15234 0.46484,-0.83203 0.7207,-2.01172 0.95703,2.01172 0.48633,0.83203 1.1211,1.1543 1.53515,0.68554 0.79688,0.16797 1.43554,0.12891 1.66797,0.0195 0.8457,-1.66992 1.25782,-2.36914 c 0.501,-0.941 0.99801,-1.88278 1.54101,-2.80078 l 0.98047,-1.48829 1.375,-1.67187 c -0.426,1.3443 -0.86509,2.68309 -1.24609,4.04101 l -0.42774,1.91993 -0.23437,1.88086 -0.0508,0.48828 -0.041,1.66992 1.04102,-0.47461 1.12304,-1.13477 0.99414,-1.51953 c 0.497,-0.852 1.11118,-2.62154 1.31836,-3.49218 l 0.65821,-1.14063 1.35156,-0.88477 0.19922,2.31836 0.17187,1.5586 0.32618,1.39844 0.46484,1.47265 1.66406,0.59375 1.6875,0.15235 1.6836,-0.64454 0.80078,-0.61523 1.51562,-1.58789 1.66992,1.01367 1.48633,0.4961 0.86328,0.1289 1.82422,0.0195 1.48438,-0.23047 1.67187,-0.42773 -2.97461,2.83594 c -0.993,0.938 -2.02251,1.85911 -2.89843,2.91211 l -1.16602,1.57812 -0.51758,0.85742 -0.92773,1.85742 -0.74219,1.95899 -0.36328,1.94141 0.0371,0.91015 0.59765,1.52735 1.27344,0.88476 1.73633,0.0742 0.94531,-0.25391 0.94922,-0.41992 1.77148,-1.23633 1.42579,-1.61718 0.55078,-0.9043 0.82031,-1.91992 0.59766,-1.98633 0.27343,-0.99609 0.62891,-1.96485 0.91992,-1.86719 c 1.053,-1.654 2.56703,-2.92181 4.08203,-4.13281 1.604,-1.281 3.33085,-2.39181 4.96485,-3.63281 0.998,-0.758 1.94673,-1.59297 2.80273,-2.50977 l 1.57422,-1.91211 0.66992,-0.98828 1.14844,-1.99414 0.99609,-1.98242 1.01172,-1.87109 1.15039,-1.53711 1.13477,-0.95703 1.52734,-0.6543 -0.0449,-1.66992 0.0625,-1.49024 0.42188,-3.8164 0.16015,-1.86328 0.10352,-1 0.0293,-0.48829 0.26758,-1.67187 0.58399,1.67187 0.25195,1.48829 0.0898,1.86523 -0.0332,0.98047 -0.23633,1.99023 -0.52539,1.94532 -0.83008,1.73828 -0.93164,1.23437 -1.36914,1.08594 v 2 l 1.65039,0.42578 1.36524,-0.18945 1.44336,-0.87305 0.60351,-0.69531 0.86524,-1.72656 c 0.447,-1.2587 0.51165,-2.62041 0.47265,-3.94141 l -0.24609,-3 -0.11524,-2 -0.0391,-3 0.0156,-3 c 0.024,-1.0017 0.0554,-2.006 0.19336,-3 l 0.38476,-1.99414 0.54688,-1.96094 0.26367,-0.88476 0.23047,-1 0.14062,-0.48829 0.22461,-1.67187 z m -8,8 c -0.602,1.061 -1.16117,2.13676 -1.82617,3.16016 l -1.24414,1.86523 -1.34766,1.97656 -0.63086,0.99805 -1.11328,2 -0.86328,2 -0.31836,1 -0.29687,1.98047 0.26172,1.87109 0.82617,1.53906 0.70898,0.61524 1.84375,0.99414 -0.082,-1.66992 -0.041,-0.48828 -0.0723,-1.88672 0.0527,-0.97852 0.48633,-1.97851 c 0.432,-1.0978 1.11306,-2.04335 1.78906,-2.99805 l 0.75,-1 c 0.697,-0.9723 1.40841,-1.91704 1.94141,-2.99414 l 0.43359,-0.98047 0.51368,-1.86523 0.18164,-1.48829 0.0469,-1.67187 z m -158,22 0.56641,1.07227 0.13867,1.16015 -0.25,1.54102 -0.73047,1.63672 -0.50391,0.81835 -1.11523,1.54102 -0.6543,0.75195 -0.31445,0.40821 -1.13672,1.07031 0.20117,-1.66992 0.35547,-1.48828 0.64649,-1.8418 0.86133,-1.83984 0.83984,-1.48829 z m 81,5 0.78711,1.08203 0.11133,1.18164 -0.45508,1.47852 -0.95508,1.23242 -1.04687,0.68359 -1.44141,0.3418 0.31641,-1.64453 0.55273,-1.35547 0.5625,-0.88477 0.23828,-0.46875 z m 58,2 -0.36133,1.22266 -0.91601,0.91601 -0.33399,0.33399 -1.38867,0.52734 0.11133,-1.38867 0.2207,-0.33203 0.33399,-0.61133 0.94531,-0.55664 z m -41.65039,0.6582 1.65039,0.3418 -0.77344,1.33008 -0.9414,0.80078 -1.35156,0.57617 -1.3086,0.23438 -1.625,0.0586 0.65235,-1.42383 0.93359,-0.95898 1.40234,-0.73828 0.91211,-0.10157 z m -87.34961,0.3418 0.52735,1.08594 0.0351,1.21679 -0.43164,1.60743 -0.87305,1.48437 -0.96093,0.95117 -1.29688,0.6543 -0.21289,-1.62695 0.24805,-1.33985 0.69922,-1.47851 0.89843,-1.19532 z m 29,2 h 3 l -0.33789,1.61133 -0.22851,0.40039 -0.87696,1.42187 -1.04492,0.91602 -1.51172,0.65039 0.3125,-1.625 0.375,-1.75 z m 17,1 0.83399,1.06055 0.0527,0.41211 0.24219,0.6875 0.0469,1.23046 -0.17578,1.60938 h -4 l 0.9375,-1.625 0.86133,-1.375 0.26367,-0.375 z m 81,7 0.39844,1.08594 -0.0469,0.43164 0.0215,0.80469 -0.30469,1.73242 c -0.238,0.935 -0.47662,1.86415 -0.76562,2.78515 l -0.53125,1.49024 -1.0625,0.88867 -1.59766,0.51367 -0.55273,-1.39844 0.11132,-1.45507 0.63672,-1.72852 1.04688,-1.68164 1.50976,-1.98047 z M 35,58 33.9599,59.0177 33.6412,59.162 32.5224,59.7052 31,60 l 0.5957,1.4869 0.2662,0.392 0.4645,0.8317 0.9537,1.4399 0.8125,1.2777 L 35,67 h 2 L 37.6944,65.5278 37.6111,64.25 37.3056,63.6667 36.7222,63.0833 35,62 h 1 l 2,-1 V 59 H 37 Z M 409.00027,37.25933 c -1.679,0.03659 -3.332,0.41101 -5,0.57031 l -3,0.17383 c -1.344,0.0687 -2.701,0.11846 -4,0.50976 -1.829,0.5507 -3.47162,1.56028 -4.89062,2.83008 l -1.67578,1.75 -0.69141,0.94726 -0.5625,0.97461 -0.74609,1.98633 -0.32422,1.99805 c -0.064,0.9985 -0.11278,1.9995 -0.0508,3 l 0.2207,1.99609 0.23437,0.98828 0.34375,0.97266 0.46094,0.93945 1.25391,1.70899 1.61719,1.38867 1.8496,1.03711 0.97657,0.40625 1.98437,0.63477 1,0.24609 c 1.301,0.3257 2.659,0.49495 4,0.50195 2.355,0.0123 4.651,-0.62404 7,-0.71484 l 2,0.01367 1,0.09961 1.9961,0.43359 1.96289,0.80469 1.85156,1.19531 0.8457,0.74219 1.44531,1.71094 0.98047,1.91015 0.32227,1.98633 -0.48828,1.99414 -0.53906,0.98828 -0.70118,0.97266 -1.73437,1.81836 c -1.177,1.0723 -2.50841,1.96445 -3.94141,2.65625 -1.275,0.6156 -2.638,1.0348 -4,1.4082 l -2,0.48828 c -0.995,0.1876 -1.983,0.38075 -3,0.40625 -1.7,0.0427 -3.37194,-0.26624 -4.96094,-0.86914 l -1.86523,-0.86523 -0.87305,-0.5332 -0.83398,-0.59961 -1.54297,-1.37891 c -0.735,-0.7124 -1.38213,-1.51507 -2.07813,-2.26367 l -1.2832,-1.20899 -1.11523,-0.67382 -1.44727,-0.3418 0.0586,1.62891 0.0742,0.4375 0.37696,1.65234 0.76953,1.52539 1.12305,1.39648 1.36328,1.29493 0.7539,0.61132 0.80664,0.58008 1.76563,1.08789 1.92383,0.98633 0.98828,0.44727 0.99609,0.38672 2,0.57421 c 1.639,0.3545 3.33,0.38012 5,0.38282 1.333,0.0021 2.673,-0.02562 4,-0.16602 1.35,-0.1429 2.682,-0.40221 4,-0.72461 1.012,-0.2475 2.0061,-0.54323 2.9961,-0.86523 l 0.98828,-0.36914 1.92187,-0.95508 1.75391,-1.33008 1.48633,-1.68945 0.625,-0.93555 0.54101,-0.97266 c 0.45,-0.9632 0.89491,-1.93997 1.12891,-2.98437 l 0.36914,-2 0.13086,-2 -0.0742,-2 -0.3418,-1.99805 -0.29492,-0.99804 -0.83789,-1.95899 -0.54102,-0.93555 -1.32617,-1.68945 -0.78906,-0.7168 -1.79102,-1.13085 -0.96484,-0.42774 -1.98242,-0.65039 -1.99805,-0.47852 -2,-0.40039 -2,-0.32226 c -1.329,-0.1573 -2.664,-0.23042 -4,-0.10742 l -2,0.23632 c -0.997,0.1312 -1.992,0.29146 -3,0.31836 l -1.99609,-0.06445 -2.84375,-0.39062 -1.49024,-0.1875 -1.41796,-0.66602 -0.73047,-1.10156 -0.16211,-0.48828 -0.45899,-1.88672 -0.0742,-1.95899 0.48633,-1.99023 0.88867,-1.96094 0.4668,-0.88476 0.73633,-1.48829 0.95508,-0.9121 0.85351,-0.61133 0.78907,-0.20899 1.16796,-0.18164 c 1.616,-0.1969 3.20908,-0.43599 4.83008,-0.58789 0.998,-0.0936 1.998,-0.14177 3,-0.13867 1.341,0.0041 2.682,0.08396 4,0.34766 1.022,0.2045 2.0181,0.51164 2.9961,0.86914 1.324,0.4837 2.60507,1.07093 3.83007,1.76953 l 1.70313,1.08398 0.73633,0.51367 0.85156,0.49805 0.39453,0.2793 1.48828,0.60742 -0.11914,-1.66992 -0.10742,-0.48438 -0.20703,-0.99023 -0.7461,-1.77149 -1.2539,-1.66601 -1.67578,-1.32813 -1.90625,-0.95507 -0.98828,-0.36915 -1.9961,-0.60546 c -0.991,-0.2721 -1.99,-0.48929 -3,-0.67969 l -1,-0.14063 z m -49,2.74218 c -2.356,0.0113 -4.776,-0.04438 -7,0.85742 -1.455,0.5898 -2.76394,1.47898 -3.96094,2.48438 -1.289,1.083 -2.4647,2.32107 -3.4707,3.67187 l -1.28906,1.98633 -0.50977,0.99805 -0.77734,2 c -0.425,1.3028 -0.64542,2.6507 -0.85742,4 l -0.13477,1 -0.26953,2 c -0.23,1.6618 -0.5348,3.3142 -0.4668,5 0.04,1.0042 0.18093,2.0237 0.41993,3 l 0.24609,1 0.62891,2 0.84375,2 c 1.177,2.4376 2.7652,4.70268 4.7832,6.51758 1.156,1.0396 2.44236,1.92554 3.81836,2.64843 0.963,0.5063 1.97709,0.90786 2.99609,1.28516 0.986,0.3652 1.986,0.67177 3,0.95117 l 2,0.38867 1,0.10547 2,0.08399 c 1.003,0.0159 2,-0.02129 3,-0.08399 l 0.99805,-0.10547 1.98633,-0.40234 0.97656,-0.30469 1.86523,-0.76757 c 1.698,-0.8309 3.30933,-1.95745 4.23633,-3.65235 l 0.63477,-1.71289 0.1582,-0.83008 0.125,-1.45312 0.0195,-1.66797 -1.67187,1.08398 -0.48828,0.41797 -1,0.77539 -1.86524,1.55664 -1.97656,1.46875 -0.99805,0.60938 -1,0.51562 -2,0.76563 c -1.298,0.3914 -2.644,0.58171 -4,0.54101 -1.01,-0.0302 -2.017,-0.19497 -3,-0.42187 -1.755,-0.405 -3.44494,-1.04049 -4.96094,-2.02539 l -1.85351,-1.42383 -0.85742,-0.80273 -0.79883,-0.81836 -1.41992,-1.66992 -0.62696,-0.85743 -1.08007,-1.80468 c -1.014,-1.9586 -1.57522,-4.10279 -2.07422,-6.23829 l -0.32813,-1.67187 1.66992,-0.09766 0.48828,-0.06836 1.00196,-0.11914 2.84375,-0.42968 1.99609,-0.19532 c 1.331,-0.0913 2.667,-0.08509 4,-0.08789 l 5,-0.002 h 6 l 3.99805,-0.0039 1.98242,-0.05468 0.96094,-0.08985 0.91015,-0.16992 1.54493,-0.70898 0.98437,-1.29102 0.26172,-0.83008 0.11914,-0.91015 0.01,-0.96094 -0.0801,-0.98438 -0.13477,-0.99609 -0.17383,-1 -0.40234,-2 c -0.31,-1.3644 -0.65992,-2.73999 -1.29492,-3.99609 l -1.19922,-1.96094 -0.76563,-0.9375 -1.77539,-1.71094 -1.95117,-1.38476 -0.99609,-0.55274 -1.99805,-0.80469 -1,-0.25781 c -1.31,-0.3009 -2.663,-0.34691 -4,-0.37891 z m 2,5.20703 1,0.04688 2,0.38672 1.9961,0.72461 c 1.005,0.4744 1.98615,0.96579 2.91015,1.58789 1.701,1.145 3.30633,2.60224 4.23633,4.46093 l 0.57812,1.59376 0.14649,0.91992 0.0742,0.4414 0.0586,1.62891 -1.67187,0.09766 -0.48828,0.07031 -1,0.11914 -2.84571,0.42773 c -0.995,0.1326 -1.99114,0.2022 -2.99414,0.2461 l -3,0.03906 -5,0.0039 c -1,0.0063 -2.002,0.01753 -3,0.08593 -1.962,0.1344 -3.88984,0.50264 -5.83984,0.74024 l -1.49024,0.1289 -1.66992,0.04102 0.37305,-1.66992 0.17578,-0.48828 0.33398,-0.99805 0.88672,-1.82813 1.22266,-1.84179 0.7168,-0.86914 0.76953,-0.82422 0.82617,-0.77149 1.78516,-1.3789 c 0.902,-0.6533 1.91806,-1.1339 2.91406,-1.6211 l 0.99609,-0.42578 2,-0.66601 2,-0.36328 z M 240,34 v 12 l -0.001,4 c -0.004,1.3331 0.003,2.6693 -0.089,4 -0.16,2.3476 -0.66,4.6524 -0.82,7 -0.092,1.3306 -0.086,2.6671 -0.089,4 l -0.001,5 0.034,4.9753 0.126,1.8642 0.198,1.0015 0.057,0.4877 L 240,80 h 2 l 0.585,-1.6713 0.057,-0.4877 0.198,-1.0015 0.126,-1.8642 L 243,71 v -9 l 0.019,-3 c 0.029,-1.0019 0.066,-2.0109 0.245,-3 l 0.501,-2 0.368,-1 0.926,-2 c 1.28,-2.4899 2.919,-4.8063 5.035,-6.6566 l 1.921,-1.4645 0.989,-0.6011 0.997,-0.5131 1.999,-0.811 1,-0.3341 2,-0.6003 c 1.307,-0.3587 2.638,-0.6901 4,-0.7415 l 2,0.0918 1,0.1775 2,0.5825 c 1.361,0.4676 2.654,1.1203 3.975,1.686 l 1.865,0.6883 1.489,0.3526 L 277,43 l -0.343,-1.6289 -0.686,-1.3426 -1.289,-1.4845 -0.83,-0.6698 -1.871,-1.1057 -0.986,-0.4244 c -0.98,-0.3476 -1.968,-0.6808 -2.995,-0.8649 l -2,-0.3048 c -1.333,-0.1162 -2.662,-0.1667 -4,-0.1667 -1.334,0 -2.673,0.0246 -4,0.1659 -1.01,0.1076 -2.01,0.2785 -3,0.507 -1.716,0.396 -3.4,0.9492 -4.985,1.7214 -1.3,0.633 -2.505,1.4164 -3.684,2.2485 l -1.577,1.1512 -0.394,0.311 L 243,42 v -8 h -3 m 46,0 10e-4,5.0247 c 0.003,1.3247 -0.002,2.6529 0.089,3.9753 l 0.195,2 0.43,3 c 0.129,0.9977 0.202,1.9953 0.246,3 0.058,1.3313 0.038,2.6678 0.039,4 v 7 19 l 1.844,-0.5903 0.712,-0.439 0.865,-1.2886 0.432,-1.7407 0.088,-0.9607 C 291.003,74.654 290.997,73.3277 291,72 l -10e-4,-3 c -0.01,-1.6694 -0.011,-3.3362 -0.169,-5 -0.159,-1.674 -0.495,-3.3242 -0.642,-5 l -0.015,-2 0.12,-1 0.225,-1 0.341,-1 1.035,-1.9961 1.45,-1.9638 0.845,-0.946 0.905,-0.9058 1.921,-1.6304 1.986,-1.3295 0.999,-0.5401 1,-0.4599 2,-0.6705 c 1.303,-0.3414 2.657,-0.472 4,-0.5031 0.999,-0.0231 2.006,0.0131 2.999,0.1204 1.642,0.1772 3.311,0.5044 4.831,1.1689 l 1.745,0.9344 1.692,1.2902 1.689,1.6203 0.805,0.9051 0.74,0.946 1.182,1.9638 c 0.614,1.2585 0.948,2.6137 1.128,3.9961 0.13,0.9948 0.148,1.9989 0.174,3 l 0.014,2 10e-4,3 10e-4,6 c 0.003,1.3324 -0.003,2.6685 0.089,3.9985 0.112,1.628 0.381,3.2322 0.635,4.8425 l 0.092,0.4877 L 325,81 h 4 l -0.042,-1.6713 -0.128,-1.4892 C 328.633,76.2234 328.324,74.6211 328.17,73 327.979,71.0056 328.003,69.001 328,67 l -10e-4,-8 c -0.008,-1.6641 0.023,-3.3451 -0.184,-5 -0.215,-1.7184 -0.642,-3.3956 -1.298,-5 -1.513,-3.7021 -4.117,-7.0183 -7.521,-9.1566 L 317,38.804 l -1,-0.4012 -1,-0.3442 c -0.986,-0.2909 -1.979,-0.5871 -3,-0.733 l -2,-0.2315 -1,-0.0501 -2,-8e-4 c -1.343,0.042 -2.674,0.1815 -4,0.3966 l -2,0.3827 c -1.013,0.2386 -2.025,0.47 -3,0.8411 l -1.995,0.9004 -0.98,0.5587 -1.865,1.2508 -1.489,1.1543 L 290,44 V 34 Z m -80.99973,-1.99849 -3,0.002 c -1.336,0.0118 -2.669,0.03931 -4,0.16601 -1.675,0.1593 -3.325,0.50086 -5,0.66016 -1.655,0.1576 -3.31361,0.16172 -4.97461,0.16992 h -5.02539 l 0.58985,1.84375 0.43945,0.71289 1.28906,0.86523 1.74024,0.43164 0.96093,0.0879 1.98047,0.05273 c 1.665,0.0232 3.341,-0.0062 5,-0.16406 1.675,-0.1593 3.325,-0.50356 5,-0.66016 3.342,-0.3127 6.77838,-0.17533 9.98438,0.88867 1.627,0.5398 3.20803,1.24558 4.45703,2.45118 1.276,1.23079 2.13308,2.83469 2.70508,4.49609 0.992,2.8826 0.84551,5.99154 0.85351,8.99414 l -1.67187,-0.35352 -0.48828,-0.14062 -1,-0.25781 -1.86524,-0.51758 c -1.316,-0.3483 -2.63961,-0.65688 -3.97461,-0.92188 -1.32,-0.262 -2.657,-0.52392 -4,-0.63672 -1.665,-0.1397 -3.33,-0.18051 -5,-0.16601 -1.003,0.0087 -1.999,0.03591 -3,0.09961 l -1,0.10351 -2,0.39063 -2,0.59766 -0.99609,0.35742 -1.96485,0.83984 -0.94921,0.52539 -1.7793,1.32422 -1.57617,1.49414 -0.85157,0.76367 -0.39453,0.41602 -0.46875,0.64844 -0.45117,1.14843 -0.28906,1.78321 -0.2793,2.52734 0.004,2.97461 c 0.034,2.0252 0.0585,4.08237 0.85351,5.98437 l 1.03711,1.90821 0.67774,0.88281 0.77148,0.80664 1.75,1.33008 0.94531,0.51953 0.97657,0.43555 1.98437,0.68945 2,0.54492 c 1.325,0.3067 2.646,0.57911 4,0.72461 1.66,0.1783 3.333,0.16583 5,0.17383 h 5 6 l 2.99805,-0.0039 0.99609,-0.01562 1.94727,-0.12891 0.91015,-0.16992 0.83008,-0.28516 0.71485,-0.42382 0.57617,-0.57618 0.70898,-1.54492 0.17188,-0.91015 0.14062,-1.94532 0.041,-0.99609 0.13476,-2 0.25391,-2 0.14844,-1 0.12695,-1 0.0918,-1 v -2 l -0.21875,-2 -0.28711,-2 c -0.122,-0.9993 -0.2021,-1.9943 -0.2461,-3 l -0.0391,-3 -0.004,-5 c -0.029,-2.3498 -0.0386,-4.7715 -0.89063,-7 l -0.96289,-1.99805 -0.65625,-0.99609 -1.61914,-1.95117 -0.92188,-0.91992 -1.95117,-1.6211 -1.99414,-1.19531 -1,-0.42383 -2,-0.55078 -2,-0.25 c -1.334,-0.0761 -2.665,-0.0858 -4,-0.0918 z m 0,22 c 0.66688,0.0054 1.334,0.01992 2,0.03906 l 1,0.05274 1,0.0957 2,0.38282 1.99414,0.74609 0.98633,0.54101 1.87109,1.41993 0.83008,0.85547 0.71485,0.91992 1,1.95117 0.45507,1.99414 0.0898,1 0.0566,3 0.002,8 h -16 l -4,-0.01563 c -1.335,-0.032 -2.68909,-0.0744 -3.99609,-0.3789 l -1.96094,-0.61524 -0.93359,-0.44726 -1.67578,-1.19531 -0.69141,-0.74219 -1,-1.70899 -0.51367,-1.91211 -0.11914,-0.98828 c -0.068,-0.9972 -0.11494,-1.99599 -0.0859,-2.99609 0.029,-0.999 0.0599,-2.01684 0.29492,-2.99414 0.248,-1.0317 0.64716,-2.00202 1.28516,-2.85742 l 1.54492,-1.54883 0.91016,-0.58594 0.96093,-0.44922 0.98438,-0.33594 c 1.315,-0.34419 2.65209,-0.59712 3.99609,-0.79882 l 2,-0.25977 c 1.001,-0.0819 1.996,-0.1313 3,-0.1543 0.6665,-0.01525 1.33313,-0.01904 2,-0.01367 z M 87,32 88.3889,31.6389 88.7222,31.3333 89.6389,30.3889 90,29 l -1.3889,0.1111 -0.3333,0.2222 -0.6111,0.3334 -0.5556,0.9444 z M 78.6667,26.3333 79,26.6667 h 0.3333 L 79,26.3333 H 78.6667 M 71,27 l 1,1 z m 12,-2 0.6281,1.3287 0.8225,0.8009 0.7037,0.3256 0.3349,0.2284 L 87,28 l -0.6281,-1.1157 -0.3225,-0.2238 -0.5,-0.5 -1.0386,-0.5941 z m -15,6 4.6003,-0.1659 c 1.1664,-0.0335 2.3273,-0.0346 3.4846,-0.2099 C 78.1119,30.3172 80.0531,29.6165 82,29 l 0.6281,1.017 0.3225,0.1466 0.5,0.3858 1.0386,0.3163 L 86,31 v -2 h -4 v -5 l -1.6713,0.0255 c -1.1188,0.0265 -2.2339,0.0667 -3.3534,0.0393 l -2.9707,-0.145 -0.9853,0.0185 -1.8712,0.4352 -1.5447,1.098 -1,1.5964 -0.2855,0.8164 -0.2562,1.4483 z M 81.99832,13.03667 c -0.66849,0.01889 -1.3366,0.06056 -1.99805,0.13281 l -5,0.67578 c -1.331,0.1614 -2.681,0.22467 -4,0.47657 l -1,0.1914 -1,0.23242 -4,1.02344 -3,0.71875 c -1.0148,0.2749 -2.0122,0.59498 -3,0.95508 -2.7587,1.0056 -5.3815,2.32663 -8,3.64453 -1.3426,0.6757 -2.6947,1.33718 -4,2.08398 -1.3793,0.7892 -2.7196,1.65 -4,2.5918 -2.8822,2.12 -5.45035,4.62956 -7.90625,7.22266 -1.1464,1.2104 -2.25838,2.45481 -3.33398,3.72851 -0.9445,1.1184 -1.86098,2.25838 -2.70508,3.45508 -1.0982,1.5569 -2.07589,3.19863 -3.05469,4.83203 -1.1726,1.9567 -2.35091,3.91405 -3.28711,5.99805 -0.4407,0.9811 -0.81153,1.9896 -1.17773,3 l -1.36914,4 -0.66992,2 -0.70899,2 -0.69726,2 -0.30469,1 -0.45703,2 c -0.2871,1.6526 -0.30372,3.3281 -0.32422,5 l -0.0039,5 v 5 c 0.0098,2.0055 -2.8e-4,4.0145 0.32422,6 0.2776,1.6978 0.78073,3.3528 1.26563,5 l 0.92578,3 1.07422,3 c 0.6191,1.669 1.23778,3.34494 1.98828,4.96094 1.002,2.157 2.23972,4.20198 3.51172,6.20898 1.4608,2.305 3.02346,4.53849 4.75976,6.64649 1.1224,1.362 2.33147,2.63671 3.57617,3.88671 0.9667,0.971 1.97587,1.91821 3.03907,2.78321 1.7456,1.419 3.65486,2.62951 5.53906,3.85351 1.313,0.854 2.61989,1.73828 3.99609,2.48828 l 2,1.05274 2.97461,1.37305 1.86524,0.78515 1,0.34766 0.48828,0.18945 1.67187,0.42383 v 2 l -1.67187,0.6582 -0.48828,0.22852 c -1.2633,0.541 -2.52565,1.09714 -3.84375,1.49414 -1.2986,0.392 -2.63701,0.62733 -3.97071,0.86133 l -1.86523,0.33008 -1.00196,0.15234 -0.48632,0.0937 -1.67188,0.18164 -0.36914,1.67187 -0.4707,1.48829 -1.07031,2.82031 -0.61915,1.85937 -0.33007,1.49024 -0.14063,1.66992 1.31836,-0.6543 0.3457,-0.33984 0.7461,-0.61133 2.10742,-2.35937 1.66602,-1.69922 1.85546,-1.48243 c 1.2293,-0.85493 2.57084,-1.50768 3.96094,-2.05468 l 2.98438,-1.125 c 0.9762,-0.42 1.93091,-0.88935 2.78711,-1.52735 l 1.48828,-1.33007 0.6289,-0.84375 0.33594,-0.40235 0.77539,-1.57031 1,1 h 2 l -0.14062,1.67187 -0.1211,0.48829 -0.21289,1 -0.6582,1.86523 -0.91016,1.97656 -2.07812,3.99805 c -0.4816,0.967 -0.92237,1.962 -1.23047,3 l -0.43555,2 -0.10742,1 c -0.065,1.001 -0.09286,1.997 -0.10156,3 -0.0144,1.668 0.01709,3.33509 0.17969,4.99609 0.0945,0.965 0.31538,1.90575 0.55078,2.84375 l 0.34765,1.00196 0.91797,2.1582 0.58399,-1.08594 0.05859,-0.42969 0.19727,-0.80468 c 0.1035,-0.887 0.12378,-1.78183 0.14648,-2.67383 0.0425,-1.667 0.01347,-3.33886 0.01367,-5.00586 l 1.31836,1.06641 0.3457,0.39257 1.35743,1.36133 1.33789,1.16992 1.16797,0.66797 1.47265,0.3418 -0.37304,-1.66992 -0.17969,-0.48828 -0.3418,-1.00196 -0.90625,-1.86523 -1.72852,-2.97461 -0.49414,-1 -0.37304,-1 -0.32227,-2 0.05469,-1 0.50781,-2 0.90235,-2 c 0.4887,-0.981 1.03026,-1.94561 1.41406,-2.97461 l 0.5625,-1.86523 0.14453,-1 0.07422,-0.48829 0.05859,-1.67187 c 1.6776,0.014 3.34773,0.002 5.01953,0.16992 0.9467,0.094 1.88142,0.25825 2.82032,0.40625 l 1,0.14844 0.48828,0.0937 1.67187,0.18164 c -0.8979,1.338 -1.82649,2.65892 -2.65039,4.04492 -0.744,1.252 -1.42554,2.52669 -1.83984,3.92969 -0.3214,1.089 -0.43794,2.22547 -0.49024,3.35547 l -0.01953,1.66992 1.20508,-0.6543 0.25195,-0.33984 0.57227,-0.61524 c 0.4832,-0.768 0.84437,-1.59282 1.20117,-2.42382 l 0.71875,-1.81055 0.35547,-0.99805 0.19727,-0.48633 0.49804,-1.67187 2,0.92187 1,0.4004 0.375,0.17382 1.625,0.50391 -0.18164,-1.64453 -0.0957,-0.46875 -0.14258,-0.88672 -0.58008,-3 1.38867,0.61328 0.32422,0.29297 0.72071,0.53125 c 0.651,0.614 1.23559,1.29612 1.84179,1.95312 l 0.66016,0.73047 1.36719,1.45508 c 1.3162,1.401 2.82771,2.74142 3.47851,4.60742 l 0.35547,1.85742 0.04688,0.97461 0.03125,0.98829 0.19531,1.99414 c 0.1633,1.006 0.45607,1.97903 0.73047,2.95703 l 0.26367,0.88476 0.23047,1.00196 0.14062,0.48828 0.22461,1.66992 h 2 l -0.04101,-1.66992 -0.12891,-1.49024 -0.66211,-4.83789 -0.14648,-1.98633 c -0.0888,-1.258 -0.14269,-2.51646 -0.52149,-3.73046 -0.6006,-1.924 -1.87672,-3.52783 -2.79492,-5.29883 l -0.88672,-1.82813 -0.33203,-1 -0.18945,-0.48633 -0.29688,-1.67187 1.66797,0.51367 0.47656,0.22266 0.97657,0.40039 c 0.8807,0.423 1.73473,0.88705 2.58203,1.37305 0.8208,0.47093 1.63132,1.00723 2.35742,1.61523 l 1.33984,1.29101 1.14258,1.39649 0.47656,0.63281 0.5918,0.57813 0.25391,0.32617 1.13476,0.65039 -0.14648,-2.14453 -0.17188,-0.97656 -0.70508,-1.72852 -1.25,-1.68164 -0.71484,-0.73242 -3.01172,-2.73633 1.67188,-0.11328 1.48828,-0.26563 1.85937,-0.53906 1.92383,-0.78125 1.73633,-0.96094 0.80273,-0.66797 0.43164,-0.29687 1.08594,-1.375 -5.02539,0.0156 -1.97656,0.0742 -1.99805,0.19532 -3,0.41015 -1.98437,0.0664 -1.90821,-0.37891 -0.88281,-0.41406 -1.52148,-1.28711 -0.60938,-0.83008 -0.50586,-0.91015 -0.40039,-0.96094 -0.48633,-1.98047 -0.08984,-1 -0.01758,-1 0.07031,-2 -0.03515,-2 -0.0918,-1 -0.36914,-3 c -0.1364,-1.325 -0.1674,-2.669 -0.125,-4 0.032,-1.004 0.11289,-2.004 0.24219,-3 0.2593,-1.997 0.64701,-3.977 0.63281,-6 -0.0071,-1.01 -0.11031,-2.0015 -0.25391,-3 l -0.33984,-2 -0.19726,-1.99609 0.04882,-0.98829 0.16602,-0.97461 0.70117,-1.85546 1.09375,-1.66993 0.66406,-0.76562 0.73047,-0.73438 c 0.8254,-0.757 1.68435,-1.45935 2.56055,-2.15625 l 1.9043,-1.4375 c 1.1932,-0.9097 2.45675,-1.78429 3.43945,-2.93359 l 1.12891,-1.64844 0.70703,-1.71875 0.39648,-1.45312 0.33203,-1.66797 2.1543,0.14844 0.99023,0.16992 1.77149,0.70508 0.86133,0.55664 1.48242,1.4082 0.96484,1.36133 0.77539,1.65039 2.01172,-0.58984 0.83008,-0.43946 1.1543,-1.28711 0.6875,-1.71679 0.25781,-1.81055 c 0.058,-1.057 0.0456,-2.09595 0.0586,-3.15625 h 2 v 50 l -2.14453,0.27539 -0.97656,0.23633 -1.71485,0.76562 -1.59179,1.10157 -1.24805,1.23242 -0.76758,1.07226 -0.55664,1.31641 1.66992,0.58594 0.48828,0.0566 1.00196,0.19726 1.86523,0.12696 4.97461,0.0332 c 2.332,0 4.675,0.0511 7,-0.16992 l 3,-0.40625 c 0.999,-0.139 1.993,-0.26599 3,-0.33399 0.998,-0.069 2,-0.0769 3,-0.0859 l 3,-0.004 h 10 l 3,-0.004 c 1,-0.009 2.002,-0.0169 3,-0.0859 1.344,-0.092 2.672,-0.278 4,-0.5 l 3,-0.5293 2,-0.46289 1,-0.29102 3,-0.96484 c 1.35,-0.459 2.69605,-0.92477 3.99805,-1.50977 l 1.98633,-0.97851 0.97461,-0.55274 1.85547,-1.22656 c 0.87593,-0.665 1.67739,-1.39266 2.40039,-2.22266 0.733,-0.842 1.36207,-1.76693 1.95507,-2.71093 0.6,-0.957 1.12014,-1.94894 1.61914,-2.96094 l 0.80079,-2 0.30468,-1 0.47461,-2 c 0.405,-1.98 0.58633,-3.981 0.61133,-6 0.026,-2.0093 -0.0752,-4.0224 -0.44922,-6 -0.257,-1.3645 -0.64284,-2.6871 -1.08984,-4 l -0.84375,-2 c -0.472,-1.0446 -1.09403,-2.01978 -1.70703,-2.98438 -0.639,-1.0066 -1.40471,-1.96127 -2.22071,-2.83007 -1.38,-1.4705 -2.98682,-2.69988 -4.67382,-3.79688 -1.571,-1.022 -3.2201,-1.92556 -4.9961,-2.53906 -1.606,-0.5549 -3.29008,-0.7948 -4.95508,-1.0957 l -4.04492,-0.75391 1.62891,-1.48438 c 0.97,-0.8751 1.95186,-1.73675 2.88086,-2.65625 1.274,-1.261 2.48573,-2.5908 3.55273,-4.0332 0.903,-1.2215 1.6826,-2.51148 2.4336,-3.83008 l 1.02539,-1.99609 0.44336,-1 0.38671,-1 0.32227,-1 0.27148,-1 0.43165,-2 c 0.19593,-0.9826 0.33328,-1.9977 0.36328,-3 l -0.0703,-2 -0.125,-1 -0.36914,-2 c -0.274,-1.3662 -0.67295,-2.7308 -1.25195,-4 -1.003,-2.1986 -2.47244,-4.19053 -4.10937,-5.95703 -1.159,-1.2496 -2.42036,-2.41233 -3.81836,-3.39063 -0.946,-0.6618 -1.9461,-1.20739 -2.9961,-1.68359 -1.283,-0.582 -2.65,-0.98295 -4,-1.37695 -1.324,-0.3865 -2.649,-0.79348 -4,-1.07618 -0.994,-0.208 -1.988,-0.34057 -3,-0.42187 l -2,-0.07813 -3,-0.01953 c -1,-0.0096 -2.001,-0.01753 -3,-0.08593 -1.007,-0.0689 -2.001,-0.19499 -3,-0.33399 l -3,-0.40625 -2,-0.13476 c -2.015,-0.0875 -4.054,-0.078 -6,-0.6875 l -2,-0.80274 -2,-1.17969 c -1.377,-0.9091 -2.636,-1.98431 -4,-2.91211 l -2,-1.27148 -3,-1.65039 c -1.327,-0.7261 -2.643,-1.46361 -4,-2.13281 l -2,-0.83985 c -1.629,-0.6083 -3.331,-0.98829 -5,-1.46679 l -2,-0.59571 c -0.9956,-0.3088 -1.9861,-0.65173 -3,-0.89843 l -2,-0.40235 -4,-0.47656 -3,-0.43359 c -0.9979,-0.1232 -1.9946,-0.21009 -3,-0.24219 -0.6646,-0.0212 -1.33346,-0.02475 -2.00195,-0.0059 z m 1.00195,5.01758 c 1.0077,0.0195 1.9997,0.11972 3,0.23242 l 2,0.30273 c 1.6738,0.2633 3.3441,0.55036 5,0.91016 1.3485,0.293 2.6728,0.70548 4,1.08008 2.0179,0.5695 4.055,1.10378 6,1.89648 l 2,0.89844 1,0.51562 2,1.125 c 1.01,0.5747 2.01414,1.17493 2.99414,1.79883 1.857,1.1816 3.85552,2.4044 4.97852,4.3711 0.672,1.1757 0.87075,2.49036 0.96875,3.81836 l 0.0527,1.99609 0.006,2 v 15 h -2 l -0.32422,-1.62891 -0.21093,-0.4414 -0.79493,-1.68946 -1.01953,-1.66406 -1.09375,-1.67187 c -0.557,-0.773 -1.1417,-1.59653 -1.9707,-2.10743 l -0.81055,-0.40039 -0.88281,-0.21484 -0.9375,-0.04102 -1.95898,0.17383 -0.99805,0.10352 -1.99805,0.20117 -1,0.16406 -1,0.23633 -1,0.30859 c -0.9902,0.3041 -1.9576,0.66826 -3,0.75586 l -2,-0.08789 -1,-0.18945 -2,-0.39648 -2,-0.11719 -0.99609,0.0957 -0.98438,0.19922 -0.96093,0.31055 -0.91016,0.41992 -1.54102,1.19531 -0.56445,0.76563 -0.63672,1.77539 -0.08008,1.93554 c 0.0492,0.9401 0.18441,1.89284 0.12891,2.83594 l -0.25586,1.70508 -0.5332,1.58594 -0.17578,0.39453 -0.49024,1.48828 L 79.34793,59.01128 77.98855,57.9644 76.5784,56.52104 76.02371,55.72026 75.31863,54.06987 75.14676,53.1187 75.00027,50.99956 c -1.35,-0.0529 -2.69392,-0.15915 -4.04492,-0.06055 -1.3316,0.0973 -2.63202,0.35375 -3.91602,0.71485 -0.9396,0.2643 -1.8424,0.61839 -2.7539,0.96289 -1.1265,0.4258 -2.23298,0.91667 -3.45508,0.98437 l -1.86914,-0.14258 c -1.2998,-0.2665 -2.59445,-0.70491 -3.93555,-0.69921 l -1.86523,0.24609 -1.00196,0.28906 -0.48632,0.17383 -1.67188,0.53125 0.61133,1.38867 -0.19531,0.33399 -0.13867,0.61132 -0.88868,0.55469 -1.38867,0.11133 0.15235,1.66797 -0.04297,0.47265 0.10742,1.76954 0.20703,0.83007 0.85937,1.39258 0.75782,0.63477 1.95898,1.23242 -0.1289,1.33398 -0.03125,1.08594 0.03125,1.11719 0.1289,1.46289 -1.60937,-0.09375 -1.23438,0.36719 -0.59179,0.34765 -0.91407,0.91016 -0.65039,1.46875 -1.65625,-0.86914 -1.41406,-0.57422 -1.66992,-0.2168 -0.83985,0.11133 -1.70507,0.45117 -1.80469,0.28711 c -0.9723,0.068 -1.94296,-0.07894 -2.91406,-0.08594 l -0.9961,-0.0078 -1.97461,0.06446 -1.86523,-0.10938 -1.00196,-0.24805 -2.1582,-0.80273 0.04102,-1.66992 0.1289,-1.49024 c 0.2142,-1.6306 0.49683,-3.24904 0.91993,-4.83984 0.7311,-2.7492 1.88558,-5.3484 2.89648,-8 l 1.09375,-3 c 0.3538,-0.9963 0.68372,-2.00301 1.10352,-2.97461 l 0.88086,-1.86523 0.57421,-1 0.26563,-0.48829 1.0957,-1.67187 1.67188,0.65039 1.48828,0.39844 1.86523,0.32226 1.97657,0.29688 1.99804,0.29687 1.9961,0.07032 1.95898,-0.2793 0.88477,-0.20313 1,-0.20312 0.48828,-0.12891 1.67187,-0.2207 -0.18164,-1.64453 -0.0957,-0.46875 -0.14258,-0.88672 -0.58008,-3 1.66992,-0.16016 1.45704,-0.44336 1.66015,-0.99414 0.73047,-0.69531 1.0332,-1.60547 0.26368,-0.96094 0.18554,-2.14062 1,-1 h 2 l -0.01562,-1.66992 -0.07422,-1.46485 -0.19922,-1.72851 -0.18945,-0.98242 -0.52149,-2.1543 1.67188,-0.91211 0.48632,-0.17383 1.00196,-0.42773 c 0.937,-0.3312 1.89155,-0.61349 2.84375,-0.89649 l 2.99609,-0.84179 2,-0.4375 2,-0.30664 2,-0.27344 c 1.3321,-0.192 2.659,-0.4327 4,-0.5586 0.9974,-0.0936 1.9982,-0.13658 3,-0.11718 z m -26,5.94531 0.56446,1.08203 0.13085,1.18164 -0.28711,1.47852 -0.29101,0.66601 -0.78906,0.93946 -1.32813,0.65234 0.13477,-1.64453 0.3164,-1.35547 0.38477,-0.88477 0.14648,-0.46875 z m 65,9 h 14 l 5,0.0059 c 1.334,0.0113 2.681,0.02951 4,0.25391 1.73,0.29437 3.38005,0.89684 4.99805,1.56054 2.003,0.8215 3.98717,1.75761 5.70117,3.09961 1.487,1.1644 2.74203,2.58595 3.83203,4.12305 1.286,1.8145 2.34516,3.79643 2.91016,5.95703 0.341,1.3034 0.4729,2.6564 0.5039,4 0.023,0.9988 -0.0131,2.0066 -0.12109,3 -0.186,1.7091 -0.55175,3.4105 -1.21875,5 l -1,2 -0.62305,1 -1.46484,1.98633 -0.82227,0.97461 -1.78515,1.84961 c -1.47,1.3715 -3.09016,2.55887 -4.91016,3.42187 -1.881,0.8916 -3.94,1.36245 -6,1.59375 -1.658,0.1863 -3.334,0.16333 -5,0.17383 h -4 -6 l -2.99609,-0.01953 -0.98438,-0.03906 -1.87109,-0.25977 -0.83008,-0.28516 -0.71484,-0.42382 -0.57617,-0.57618 -0.70899,-1.54492 -0.16992,-0.91015 -0.125,-1.94532 c -0.042,-1.3332 0.0385,-2.66829 0.14648,-3.99609 l 0.11524,-1 0.42969,-3 0.19531,-2 c 0.069,-1.3338 0.0819,-2.6647 0.0879,-4 l 0.002,-5 z m -65,1 -0.91015,1.01172 -0.4375,0.18359 -1.65235,0.80469 0.36133,-1.13867 0.30469,-0.19336 0.94531,-0.55664 z m -16,3 h 2 v 6 l -1.50781,-0.3418 -0.99414,-0.68164 -0.39063,-0.55469 -0.34375,-1.4082 0.28125,-1.36133 z m 47,10 1.67188,0.14453 1.48437,0.35547 1.82422,0.72851 1.79297,1.0586 1.48437,1.32226 1,1.55664 0.51563,1.71876 0.10742,0.46093 0.11914,1.6543 -1.66992,0.16406 -1.47656,0.11328 -0.85742,-0.01953 -0.92774,-0.14648 -1.72656,-0.80469 -0.76953,-0.66406 -0.67969,-0.80274 -1.03516,-1.83398 -0.58007,-1.8457 -0.14454,-1 z m 15,0 h 2 l -1,2 h -1 z m 9,4 0.33789,1.60937 0.22852,0.40235 0.87695,1.42383 1.04492,0.91601 1.51172,0.64844 -0.14648,2.11914 -0.17188,0.94727 -0.70508,1.61523 -0.55664,0.75 -1.4082,1.24414 -1.36133,0.76758 -1.65039,0.55664 1.05469,-2.13867 0.34375,-0.96289 0.0273,-1.60547 -0.88281,-1.26563 -1.57617,-0.70898 -0.83008,-0.16992 -1.4668,-0.12696 -1.66992,-0.02148 0.3418,-1.47266 0.68555,-1.15429 1.26562,-1.24805 1.60547,-1.03125 1.43359,-0.63672 z m -42,4 1.26172,0.63867 0.32422,0.31836 0.70312,0.56445 1.26954,1.3418 1.33398,1.55664 1.12109,1.58985 0.64649,1.36132 0.33984,1.62891 1.66992,-0.15625 1.45704,-0.40625 1.6582,-0.84766 1.3164,-1.1582 0.67579,-1.0918 0.22265,-1.33984 1.60156,-0.94336 0.79688,-0.4043 0.31055,-0.21289 1.29101,-0.43945 0.58399,1.625 0.05664,0.375 0.25586,1.375 0.10351,1.625 -1.62109,0.88867 -0.41602,0.31445 -0.85742,0.60352 -1.23242,1.25 -0.79883,1.4375 -0.42187,1.5293 -0.27149,1.34765 -0.38086,1.62891 1.38867,0.36133 0.94532,0.91601 0.30468,0.33399 0.36133,1.38867 1.62305,-0.14063 1.31445,-0.32421 c 0.6295,-0.2021 1.24443,-0.48172 1.82813,-0.79102 l 1.23437,-0.74414 -0.37304,1.62695 -0.17969,0.42774 -0.76367,1.5957 -1.19727,1.33984 -1.60547,0.94141 -0.89258,0.26758 -0.89843,0.08984 -0.8711,-0.10547 -1.51562,-0.82812 -0.61328,-0.6836 -0.94336,-1.68554 -0.63282,-1.83203 -0.15625,-0.48243 -0.35742,-1.67187 -2.10547,-0.31445 -0.92578,-0.28516 -1.51953,-0.96484 -1.30273,-1.41407 -1,-1.61523 -0.69141,-1.69141 -0.25,-0.88476 c -0.2374,-0.9478 -0.42362,-1.91095 -0.73242,-2.83985 l -0.75977,-1.94531 -0.41992,-0.88476 -0.44531,-1 -0.25586,-0.48829 z m 31,2 1.64453,1.41211 0.46875,0.25781 0.88672,0.58985 1.35547,0.54492 1.64453,0.19531 -1.05469,2.14062 -0.34375,0.96094 -0.0293,1.60547 0.88867,1.26367 1.61719,0.66797 1.92187,0.09375 1.95508,-0.33984 0.88477,-0.25781 3.16015,-1.13477 v 5 l -1.60937,0.34375 -1.23438,0.68164 -1.15429,1.24805 -0.40235,0.71484 -0.43945,1.36133 -0.16016,1.65039 -1.57422,-0.88281 -0.41797,-0.29883 -0.88085,-0.56641 -1.55079,-0.99218 -1.58789,-0.75 -0.91797,-0.23438 -2.07031,-0.27539 v -3 l -1.65625,-0.01953 c -0.7415,-0.0341 -1.48965,-0.08938 -2.21875,-0.23438 L 97.26004,68.56401 95.57449,68.12847 94.71512,67.9644 93.8323,67.89604 c -0.939,-0.0265 -1.87563,0.15184 -2.80273,0.26953 l -0.87305,0.10743 -1.48437,0.01953 -1.67188,-0.29297 v -2 l 1.61328,-0.77344 1.26953,-0.96094 1.29297,-1.44726 0.51368,-0.76563 0.71874,-1.39648 0.5918,-1.65625 1.66992,-0.19727 1.46485,-0.31836 c 1.6402,-0.4313 3.24993,-0.97007 4.86523,-1.48437 z m -48,1 1.35938,0.96875 0.39453,0.32617 c 0.7966,0.5919 1.59115,1.17066 2.43555,1.69336 1.72793,1.0698 3.74925,1.80799 5.06835,3.42969 l 1,1.6914 0.30665,0.9336 0.20312,0.96875 0.10547,0.97656 -0.01367,1.89649 -0.31055,1.66601 -0.53125,1.21094 -1.01758,1.23828 1.01367,1.08398 0.25977,0.41797 1.08789,1.52735 1.25195,1.55468 1.43946,1.23243 0.89257,0.46484 2.05469,0.71875 -0.18359,1.67187 -0.0918,0.48829 -0.15039,1 -0.30664,1.84961 c -0.1517,0.94033 -0.27468,1.89111 -0.48828,2.82031 l -0.48633,1.74609 c -0.3887,1.1632 -0.8195,2.30037 -1.0332,3.51367 -0.4022,2.2832 -0.13607,4.62056 -0.48047,6.91016 l -0.41992,2 -0.28711,1 c -0.2687,0.991 -0.59337,1.966 -0.66407,3 l 0.08985,2 0.42773,2 0.21289,0.99609 0.19336,1.96485 c -0.0211,0.954 -0.21724,1.85123 -0.56054,2.74023 -0.442,1.143 -1.14249,2.15764 -1.80079,3.18164 -0.51613,0.803 -1.07502,1.59038 -1.64062,2.35938 l -1.24609,1.51172 -0.69727,0.62695 -0.76562,0.47265 -0.83204,0.27344 -0.89257,0.0566 -0.93946,-0.14843 -0.97265,-0.31836 -1.98633,-0.96875 -1.99805,-1.19141 -1,-0.65039 -2,-1.43164 c -1.3592,-1.041 -2.65178,-2.16975 -3.89648,-3.34375 -0.8655,-0.817 -1.73337,-1.65069 -2.50977,-2.55469 -1.0038,-1.169 -1.93573,-2.38823 -2.86523,-3.61523 l -1.45313,-1.96485 c -1.1655,-1.626 -2.24784,-3.30209 -3.31054,-4.99609 -0.8176,-1.303 -1.62,-2.623 -2.3086,-4 -0.6483,-1.2965 -1.1805,-2.6447 -1.6914,-4 -0.624,-1.6554 -1.23449,-3.314 -1.77149,-5 l -0.89648,-3 c -0.3763,-1.3198 -0.75086,-2.6434 -0.97266,-4 -0.3232,-1.9775 -0.31422,-3.97721 -0.32422,-5.97461 v -5.02539 l 2.1543,0.94727 0.98047,0.31445 1.72851,0.19922 1.4668,-0.1211 1.66992,-0.33984 1.23828,1.51172 1.1875,1.04492 1.5293,0.86523 1.39062,0.41993 1.6543,0.1582 v -5 l 2,0.34766 0.50586,0.06835 1.49414,0.58399 v 2 l -1,1 4,2 0.42969,-1.65234 0.20117,-0.45118 0.82422,-1.68164 1.16406,-1.50781 1.35547,-1.39258 1.16797,-1.41211 0.63867,-1.28711 0.21875,-1.61523 L 55.6741,67.92925 55.57449,67.523 55.52566,66.76909 54.62137,65.22612 53.29519,63.57573 52.7034,62.73784 52.05301,61.07183 52.15066,60.1187 Z m 69,21 h 22 l 4,0.0039 c 1,0.0088 2.002,0.01563 3,0.08593 1.339,0.0944 2.688,0.24962 4,0.54102 1.011,0.2245 2.017,0.445 3,0.7793 1.036,0.3523 2.0341,0.79104 2.9961,1.31054 1.702,0.9185 3.27506,2.05509 4.66406,3.40039 1.519,1.4695 2.78856,3.20313 3.81054,5.04883 0.843,1.5236 1.54961,3.13943 1.97461,4.83203 0.491,1.9539 0.56416,3.99255 0.53516,5.99805 -0.023,1.676 -0.11106,3.371 -0.53906,5 -0.465,1.774 -1.24792,3.45594 -2.29492,4.96094 -0.684,0.983 -1.46399,1.88793 -2.33399,2.71093 -0.871,0.822 -1.82712,1.54032 -2.82812,2.19532 -1.857,1.217 -3.91638,2.11239 -5.98438,2.90039 -2.581,0.982 -5.247,1.75959 -8,2.05859 -1.989,0.217 -4.003,0.17083 -6,0.17383 h -10 l -4.99804,0.0156 -1.97657,0.0742 -0.98047,0.0879 -1.88672,0.30078 -0.48828,0.0898 -1.66992,0.43164 z m -48,14 0.60742,1.52344 0.83008,1.11914 0.23242,0.31836 1.33008,1.03906 0.34766,-2 0.0664,-0.50586 0.58594,-1.49414 1.89844,0.7207 0.79102,0.46485 1.22265,1.25 1.07031,1.67382 0.44141,0.93555 0.3418,0.9707 0.30468,1.98047 c 0.0504,1.3 -0.30559,2.59171 -0.59179,3.84571 l -0.12891,0.48828 -0.34961,1.66992 -1.34961,-0.77539 -0.27734,-0.33594 -0.65235,-0.62695 -1.02734,-1.47071 -0.55273,-0.83984 -1.2793,-1.64453 -1.25195,-1.2207 -1.60938,-1.08594 -0.71289,1.67187 -0.25195,0.48829 -0.8711,1.88476 -0.7539,1.96094 c -0.3409,0.97 -0.52515,1.98214 -0.68555,2.99414 l -0.08984,2 0.10742,0.99609 0.61328,1.96094 1.13672,1.81445 0.74219,0.80469 1.66211,1.3125 0.45117,0.33594 1.65234,0.77539 0.54492,-1.66992 0.1836,-0.48828 c 0.3513,-0.942 0.6873,-1.88664 1.0957,-2.80664 0.369,-0.831 0.75709,-1.65383 1.24609,-2.42383 l 0.5586,-0.61524 0.24023,-0.34179 1.13086,-0.6543 -0.22461,1.67187 -0.14453,0.48829 -0.24219,1 -0.63671,1.86523 -0.38477,0.97461 -0.875,1.94141 -1.03125,1.73828 -1.03125,1.23437 -1.42969,1.08594 -2,-1.19336 -0.50586,-0.32227 -1.49414,-0.48437 1.23828,1.41211 1.20703,0.91601 1.625,0.66797 0.81446,0.15625 1.44726,0.043 1.66797,-0.19531 -0.08984,1.62891 0.4043,1.34765 1.03515,1.53321 c 0.8609,0.96299 1.82415,1.82875 2.62695,2.84374 l 0.67969,1.17383 0.34375,1.47266 -2.07031,-0.31445 -0.91992,-0.28907 -1.60938,-1 -0.83008,-0.71093 -2.66015,-2.59961 c -1.1947,-1.135 -2.46366,-2.23211 -3.91016,-3.03711 l -1.97461,-0.8711 -1.86523,-0.36328 -1.48828,-0.0117 -1.67188,0.19727 0.64844,-1.26172 0.32226,-0.32422 0.5625,-0.70703 0.58008,-0.61328 0.58789,-0.71094 0.82032,-1.59375 0.07226,-1.83203 -0.20117,-0.9707 -0.28125,-0.99024 -0.55859,-1.99609 -0.32618,-2 c -0.1816,-2.005 0.20633,-3.997 0.20313,-6 -0.0027,-1.665 -0.24685,-3.31431 -0.34375,-4.97461 -0.0976,-1.6737 -0.08134,-3.34969 -0.08594,-5.02539 l 1.625,-0.3125 1.75,-0.375 z m 2,8 0.88086,1.08594 0.4336,1.23437 0.09374,1.7207 -0.13867,0.91993 -0.57812,1.71875 -0.69727,1.23437 -0.99414,1.08594 -0.46875,-2.15625 -0.11328,-1 0.01953,-0.86328 0.31055,-1.82422 0.33984,-0.99805 z m -2,12 1.38867,0.5293 0.33399,0.33203 0.91601,0.91797 0.36133,1.2207 -1.32617,-0.9082 -0.32617,-0.4375 z m 9,4 0.45117,1.02539 -0.0625,0.97461 -0.31836,0.62109 -0.08984,0.35352 -0.98047,1.02539 0.31446,-1.49414 0.14453,-0.50586 z m -11.03515,9.28711 1.86132,0.45898 1.69141,0.97266 0.76758,0.66992 1.36523,1.56055 0.36133,0.42578 0.98828,1.625 -1.67187,-0.65039 -1.48828,-0.89649 -0.88477,-0.60156 -1.95898,-1.16406 -0.99414,-0.37891 -0.97657,-0.16406 -1.86523,0.28711 -1.00196,0.42383 -2.1582,1.14453 0.9961,-1.84375 0.61328,-0.71094 c 0.7438,-0.493 1.53271,-0.98489 2.44531,-1.08789 z"
           inkscape:connector-curvature="0" />
      </g>
    </g>
  </g>
</svg>
